<svg width="156" height="156" viewBox="0 0 156 156" fill="none" xmlns="http://www.w3.org/2000/svg">
<g filter="url(#filter0_d_2_586)">
<path fill-rule="evenodd" clip-rule="evenodd" d="M76.841 17C100.48 17 123 32.6023 123 56.3669C123 83.1884 103.521 107 76.841 107C50.7642 107 33 82.5821 33 56.3669C33 33.2888 53.8847 17 76.841 17Z" fill="#F5DFDC"/>
</g>
<g clip-path="url(#clip0_2_586)">
<path d="M77.0995 76.0693H72.3584H70.8272C66.7996 76.0693 63.5217 75.8298 63.5217 71.85V61.8138H61.2025C60.4113 61.8138 59.7006 61.3392 59.3981 60.6152C59.0964 59.8871 59.2647 59.0521 59.8209 58.4957L75.2395 43.1395C75.9763 42.4049 76.9578 42 77.9995 42C79.0419 42 80.0234 42.4049 80.7602 43.1395C83.312 45.681 85.2258 47.5871 86.5017 48.8579C86.5943 48.9501 86.8506 49.2053 86.9056 49.2601C86.9423 49.2966 86.9606 49.0449 86.9606 48.505C87.0558 47.163 88.1641 46.1037 89.5368 46.1037H89.5522C90.985 46.1037 92.1446 47.2586 92.1446 48.6848V54.047C92.1446 54.1895 92.1251 54.3135 92.1032 54.4398L96.1788 58.4957C96.7374 59.0521 96.9033 59.8871 96.6008 60.6152C96.2991 61.3392 95.5876 61.8138 94.7972 61.8138H92.1446V63.0969C94.9207 64.9448 96.75 68.1025 96.75 71.6875C96.75 77.3829 92.1329 82 86.4375 82C82.3088 82 78.7468 79.5738 77.0995 76.0693ZM86.4375 81.0625C91.6152 81.0625 95.8125 76.8652 95.8125 71.6875C95.8125 66.5098 91.6152 62.3125 86.4375 62.3125C81.2598 62.3125 77.0625 66.5098 77.0625 71.6875C77.0625 76.8652 81.2598 81.0625 86.4375 81.0625ZM90.3147 73.4079C90.3147 74.0977 90.0674 74.6941 89.5729 75.1969C89.0784 75.6997 88.3615 76.0218 87.4224 76.1631V76.7989C87.4224 77.212 87.0875 77.5469 86.6744 77.5469C86.2613 77.5469 85.9263 77.212 85.9263 76.7989V76.2129C85.303 76.1714 84.7129 76.0654 84.1561 75.895C83.8096 75.789 83.5001 75.6677 83.2277 75.5311C82.9652 75.3996 82.8526 75.0849 82.972 74.8168C82.976 74.8078 82.9798 74.7992 82.9834 74.7911L83.3889 73.8806C83.4846 73.6655 83.7364 73.5688 83.9515 73.6645C83.9611 73.6688 83.9705 73.6735 83.9798 73.6785C84.0014 73.6901 84.0217 73.7006 84.0405 73.7102C84.316 73.8495 84.6164 73.969 84.9415 74.0687C85.4568 74.2266 85.9638 74.3055 86.4624 74.3055C87.4099 74.3055 87.8836 74.0686 87.8836 73.5949C87.8836 73.3456 87.7486 73.1606 87.4784 73.0401C87.2083 72.9196 86.7741 72.7929 86.1756 72.6599C85.5191 72.5186 84.9706 72.3669 84.5301 72.2049C84.0896 72.0428 83.7114 71.7831 83.3956 71.4257C83.0797 71.0683 82.9219 70.5863 82.9219 69.9795C82.9219 69.2648 83.1795 68.6518 83.6948 68.1407C84.2101 67.6296 84.9539 67.3158 85.9263 67.1995V66.5761C85.9263 66.163 86.2613 65.8281 86.6744 65.8281C87.0875 65.8281 87.4224 66.163 87.4224 66.5761V67.1745C87.8961 67.2161 88.3512 67.2992 88.7875 67.4239C89.095 67.5117 89.3788 67.6182 89.6389 67.7432C89.6606 67.7536 89.6852 67.7659 89.7126 67.7801C89.8497 67.8507 89.9098 68.0146 89.8507 68.1571L89.2847 69.5208C89.2379 69.6336 89.1085 69.6871 88.9956 69.6403C88.9906 69.6382 88.9857 69.636 88.9809 69.6336C88.9394 69.6127 88.9041 69.5953 88.8749 69.5815C88.1557 69.2401 87.4554 69.0695 86.7741 69.0695C86.2837 69.0695 85.9263 69.1422 85.7019 69.2877C85.4775 69.4331 85.3653 69.6222 85.3653 69.8549C85.3653 70.0876 85.4983 70.2621 85.7643 70.3785C86.0302 70.4948 86.4583 70.6154 87.0484 70.74C87.7133 70.8813 88.2639 71.033 88.7002 71.1951C89.1366 71.3571 89.5147 71.6148 89.8347 71.968C90.1547 72.3212 90.3147 72.8012 90.3147 73.4079Z" fill="#FF5A3C"/>
</g>
<defs>
<filter id="filter0_d_2_586" x="0" y="0" width="156" height="156" filterUnits="userSpaceOnUse" color-interpolation-filters="sRGB">
<feFlood flood-opacity="0" result="BackgroundImageFix"/>
<feColorMatrix in="SourceAlpha" type="matrix" values="0 0 0 0 0 0 0 0 0 0 0 0 0 0 0 0 0 0 127 0" result="hardAlpha"/>
<feMorphology radius="12" operator="erode" in="SourceAlpha" result="effect1_dropShadow_2_586"/>
<feOffset dy="16"/>
<feGaussianBlur stdDeviation="22.5"/>
<feColorMatrix type="matrix" values="0 0 0 0 0.235294 0 0 0 0 0.313726 0 0 0 0 0.878431 0 0 0 0.05 0"/>
<feBlend mode="normal" in2="BackgroundImageFix" result="effect1_dropShadow_2_586"/>
<feBlend mode="normal" in="SourceGraphic" in2="effect1_dropShadow_2_586" result="shape"/>
</filter>
<clipPath id="clip0_2_586">
<rect width="40" height="40" fill="white" transform="translate(58 42)"/>
</clipPath>
</defs>
</svg>
