<svg width="156" height="156" viewBox="0 0 156 156" fill="none" xmlns="http://www.w3.org/2000/svg">
<g opacity="0.2" filter="url(#filter0_d_2_602)">
<path fill-rule="evenodd" clip-rule="evenodd" d="M76.841 17C100.48 17 123 32.6023 123 56.3669C123 83.1884 103.521 107 76.841 107C50.7642 107 33 82.5821 33 56.3669C33 33.2888 53.8847 17 76.841 17Z" fill="#F5DFDC"/>
</g>
<g clip-path="url(#clip0_2_602)">
<path fill-rule="evenodd" clip-rule="evenodd" d="M72.3944 60.5254C64.4445 60.5254 58 66.9698 58 74.9192C58 76.1809 58.163 77.4039 58.4679 78.5697H85.8912C86.5587 78.7097 87.2502 78.7836 87.9594 78.7836C93.5048 78.7836 98 74.2884 98 68.743C98 63.1975 93.5048 58.7023 87.9594 58.7023C84.6951 58.7023 81.7948 60.2606 79.961 62.6734C77.7621 61.3118 75.1703 60.5254 72.3944 60.5254ZM84.0344 70.564L86.2685 70.2239C86.3625 70.6531 86.5543 70.9795 86.8455 71.2007C87.1342 71.4244 87.5419 71.5355 88.0622 71.5355C88.6367 71.5355 89.0684 71.4298 89.3601 71.2198C89.5543 71.0711 89.6513 70.8719 89.6513 70.6232C89.6513 70.4564 89.5974 70.3159 89.4922 70.2053C89.3816 70.1001 89.1335 70.0002 88.7503 69.9112C86.9561 69.5147 85.8207 69.1531 85.3401 68.8266C84.674 68.371 84.3422 67.7397 84.3422 66.9331C84.3422 66.202 84.6309 65.5892 85.2055 65.093C85.6225 64.7328 86.2058 64.5032 86.9556 64.4044V63.2602H88.9641V64.4161C89.5822 64.5018 90.0741 64.6672 90.4392 64.9124C90.9976 65.2897 91.3833 65.8457 91.5937 66.5822L89.5054 66.9708C89.4163 66.6415 89.2441 66.3879 88.993 66.2127C88.7419 66.037 88.3832 65.9509 87.9168 65.9509C87.3285 65.9509 86.9076 66.0317 86.6512 66.1966C86.4814 66.3126 86.3977 66.4633 86.3977 66.6468C86.3977 66.8059 86.4706 66.941 86.6189 67.0516C86.8215 67.1999 87.5145 67.4079 88.7018 67.6775C89.8886 67.9472 90.7172 68.2766 91.1865 68.6676C91.6529 69.0616 91.8849 69.6146 91.8849 70.3213C91.8849 71.0901 91.5638 71.7538 90.9193 72.3068C90.4402 72.7194 89.7888 72.9788 88.9641 73.084V74.2258H86.9556V73.0536C86.3169 72.9489 85.7796 72.7453 85.343 72.4443C84.6765 71.9828 84.2399 71.3574 84.0344 70.564ZM87.9594 61.2673C83.8303 61.2673 80.4837 64.6143 80.4837 68.743C80.4837 72.8721 83.8303 76.2191 87.9594 76.2191C92.0885 76.2191 95.435 72.8721 95.435 68.743C95.435 64.6143 92.0885 61.2673 87.9594 61.2673ZM72.3944 45.2163C68.8237 45.2163 65.9293 48.1106 65.9293 51.6813C65.9293 55.252 68.8237 58.1464 72.3944 58.1464C75.9646 58.1464 78.8594 55.252 78.8594 51.6813C78.8594 48.1106 75.9646 45.2163 72.3944 45.2163Z" fill="white"/>
</g>
<defs>
<filter id="filter0_d_2_602" x="0" y="0" width="156" height="156" filterUnits="userSpaceOnUse" color-interpolation-filters="sRGB">
<feFlood flood-opacity="0" result="BackgroundImageFix"/>
<feColorMatrix in="SourceAlpha" type="matrix" values="0 0 0 0 0 0 0 0 0 0 0 0 0 0 0 0 0 0 127 0" result="hardAlpha"/>
<feMorphology radius="12" operator="erode" in="SourceAlpha" result="effect1_dropShadow_2_602"/>
<feOffset dy="16"/>
<feGaussianBlur stdDeviation="22.5"/>
<feColorMatrix type="matrix" values="0 0 0 0 0.235294 0 0 0 0 0.313726 0 0 0 0 0.878431 0 0 0 0.05 0"/>
<feBlend mode="normal" in2="BackgroundImageFix" result="effect1_dropShadow_2_602"/>
<feBlend mode="normal" in="SourceGraphic" in2="effect1_dropShadow_2_602" result="shape"/>
</filter>
<clipPath id="clip0_2_602">
<rect width="40" height="40" fill="white" transform="matrix(-1 0 0 1 98 42)"/>
</clipPath>
</defs>
</svg>
