<svg width="156" height="156" viewBox="0 0 156 156" fill="none" xmlns="http://www.w3.org/2000/svg">
<g filter="url(#filter0_d_2_594)">
<path fill-rule="evenodd" clip-rule="evenodd" d="M76.841 17C100.48 17 123 32.6023 123 56.3669C123 83.1884 103.521 107 76.841 107C50.7642 107 33 82.5821 33 56.3669C33 33.2888 53.8847 17 76.841 17Z" fill="#F5DFDC"/>
</g>
<g clip-path="url(#clip0_2_594)">
<path d="M75.187 77.1603H60.6265V72.4447C60.6265 71.4519 61.0401 70.5005 61.8261 69.88C66.0867 66.364 70.7195 64.0476 71.6296 63.5926C71.7537 63.5512 71.795 63.4271 71.795 63.303V60.8625C71.1746 59.787 70.8023 58.5874 70.6368 57.5119C70.2645 57.4705 69.7681 56.9741 69.2304 55.0714C68.5686 52.6722 69.189 52.1758 69.8095 52.1758C69.8509 52.1758 69.8922 52.1758 69.9336 52.1758C69.4372 50.8108 69.4372 49.4871 69.7681 48.2875C70.0991 46.8397 70.885 45.6815 71.7537 44.7715C72.2914 44.1923 72.9532 43.6546 73.6151 43.241C74.1528 42.8687 74.7733 42.5377 75.3938 42.3309C75.9315 42.1655 76.4693 42.0414 77.0484 42.0414C77.2966 42 77.5034 42 77.7516 42C79.1994 42 80.3162 42.4137 81.1435 42.91C82.5913 43.696 83.129 44.7715 83.129 44.7715C83.129 44.7715 86.7692 45.0196 85.1559 52.6308C85.6523 52.7963 85.9832 53.4581 85.4041 55.485C84.8664 57.4292 84.3286 57.9255 83.9563 57.9255C83.8323 57.9255 83.7495 57.8842 83.6668 57.8428C83.5013 58.7115 83.2531 59.6215 82.8395 60.4902C82.8395 61.7311 82.8395 62.8893 82.8395 63.3444C82.8395 63.4685 82.9222 63.5512 83.005 63.6339C83.4186 63.8407 84.6182 64.4612 86.2314 65.3713C86.1073 65.4953 85.9419 65.6194 85.8178 65.7435C84.7009 66.819 84.1218 68.2254 84.1218 69.8387C84.1218 71.7415 84.7836 72.9411 85.4869 73.6856C85.0318 73.8097 84.6596 74.0579 84.3286 74.3888C83.8736 74.8852 83.6254 75.5057 83.6668 76.1675C83.6668 76.5398 83.7495 76.8707 83.7909 77.2017H79.5717H75.187V77.1603ZM91.6089 63.9235H90.2025C89.9956 63.9235 89.8302 64.0889 89.8302 64.2958V65.9504C88.7547 66.1158 87.9274 66.4881 87.2656 67.1086C86.5623 67.8118 86.1901 68.6805 86.1901 69.7559C86.1901 70.9555 86.521 71.8242 87.2242 72.4447C87.9274 73.0651 89.0029 73.6443 90.492 74.2647C91.1125 74.5129 91.5262 74.8025 91.7743 75.092C92.0225 75.3816 92.1466 75.7539 92.1466 76.2503C92.1466 76.6639 92.0225 77.0362 91.7743 77.2844C91.5262 77.5326 91.1952 77.698 90.7402 77.698C90.2025 77.698 89.7475 77.5326 89.4165 77.1603C89.127 76.8707 88.9615 76.4571 88.9202 75.878C88.9202 75.6711 88.7133 75.4643 88.4651 75.4643L86.1901 75.5057C85.9419 75.5057 85.735 75.7125 85.735 75.9607C85.7764 77.1603 86.1901 78.1117 86.8933 78.7735C87.6792 79.4767 88.672 79.8904 89.8302 80.0558V81.6277C89.8302 81.8345 89.9956 82 90.2025 82H91.6089C91.8157 82 91.9812 81.8345 91.9812 81.6277V80.0145C92.9326 79.849 93.6771 79.4767 94.2976 78.8976C95.0008 78.2358 95.3317 77.3257 95.3317 76.2503C95.3317 75.092 95.0008 74.182 94.2976 73.5615C93.5944 72.9411 92.5189 72.3206 91.0298 71.7001C90.4093 71.4105 89.9543 71.1624 89.7475 70.8728C89.4993 70.5832 89.4165 70.2523 89.4165 69.7973C89.4165 69.3837 89.5406 69.0114 89.7475 68.7218C89.9543 68.4323 90.2852 68.3082 90.7402 68.3082C91.1952 68.3082 91.5262 68.4736 91.8157 68.8046C92.0225 69.0941 92.1466 69.4664 92.188 69.9628C92.188 70.1696 92.3948 70.3351 92.643 70.3351L94.9181 70.2937C95.1663 70.2937 95.3731 70.0869 95.3731 69.8387C95.3317 68.8459 95.0008 68.0186 94.4217 67.3154C93.8012 66.6122 93.0153 66.1572 92.0225 65.9504V64.213C92.0225 64.0889 91.8157 63.9235 91.6089 63.9235Z" fill="#FF5A3C"/>
</g>
<defs>
<filter id="filter0_d_2_594" x="0" y="0" width="156" height="156" filterUnits="userSpaceOnUse" color-interpolation-filters="sRGB">
<feFlood flood-opacity="0" result="BackgroundImageFix"/>
<feColorMatrix in="SourceAlpha" type="matrix" values="0 0 0 0 0 0 0 0 0 0 0 0 0 0 0 0 0 0 127 0" result="hardAlpha"/>
<feMorphology radius="12" operator="erode" in="SourceAlpha" result="effect1_dropShadow_2_594"/>
<feOffset dy="16"/>
<feGaussianBlur stdDeviation="22.5"/>
<feColorMatrix type="matrix" values="0 0 0 0 0.235294 0 0 0 0 0.313726 0 0 0 0 0.878431 0 0 0 0.05 0"/>
<feBlend mode="normal" in2="BackgroundImageFix" result="effect1_dropShadow_2_594"/>
<feBlend mode="normal" in="SourceGraphic" in2="effect1_dropShadow_2_594" result="shape"/>
</filter>
<clipPath id="clip0_2_594">
<rect width="40" height="40" fill="white" transform="translate(58 42)"/>
</clipPath>
</defs>
</svg>
