<svg width="50" height="55" viewBox="0 0 50 55" fill="none" xmlns="http://www.w3.org/2000/svg">
<path d="M44.809 48.2649C40.5808 51.7959 35.3835 53.9655 29.8998 54.4887C24.416 55.012 18.9022 53.8644 14.0826 51.1967C9.26297 48.529 5.36289 44.466 2.89458 39.5413C0.426282 34.6166 -0.494807 29.0605 0.252295 23.6027C0.999397 18.145 3.37975 13.0408 7.08072 8.9606C10.7817 4.88039 15.6302 2.01496 20.9894 0.740654C26.3487 -0.533651 31.968 -0.157236 37.1094 1.82046C42.2508 3.79816 46.6738 7.28465 49.7976 11.822L44.1769 15.6915C41.8338 12.2881 38.5161 9.67286 34.6595 8.1894C30.803 6.70594 26.5879 6.42359 22.568 7.37944C18.548 8.33529 14.9112 10.4846 12.1351 13.5452C9.35902 16.6057 7.57352 20.4344 7.01312 24.5282C6.45272 28.6221 7.14363 32.7897 8.9951 36.4837C10.8466 40.1777 13.772 43.2254 17.3872 45.2264C21.0024 47.2274 25.1383 48.0882 29.2516 47.6957C33.3649 47.3032 37.2634 45.6758 40.4349 43.0272L44.809 48.2649Z" fill="#FF5A3C"/>
</svg>
