<svg width="20" height="20" viewBox="0 0 20 20" fill="none" xmlns="http://www.w3.org/2000/svg">
<circle cx="10" cy="10" r="10" fill="#FF5A3C"/>
<g clip-path="url(#clip0_2_362)">
<path d="M10.0002 5.33331C7.42293 5.33331 5.3335 7.42275 5.3335 9.99998C5.3335 12.5772 7.42293 14.6666 10.0002 14.6666C12.5774 14.6666 14.6668 12.5772 14.6668 9.99998C14.6668 7.42275 12.5774 5.33331 10.0002 5.33331ZM11.3406 11.8398C11.1371 12.0875 10.872 12.2546 10.5629 12.3391C10.4284 12.3756 10.367 12.4466 10.3746 12.5868C10.3804 12.7251 10.3746 12.8614 10.3727 12.9997C10.3727 13.1226 10.3094 13.1879 10.1884 13.1917C10.1096 13.1937 10.0309 13.1956 9.95215 13.1956C9.88302 13.1956 9.81388 13.1956 9.74474 13.1937C9.61415 13.1917 9.5527 13.1169 9.5527 12.9901C9.55078 12.8902 9.55078 12.7885 9.55078 12.6886C9.54886 12.4658 9.54118 12.4581 9.32801 12.4236C9.05531 12.3794 8.78645 12.3179 8.53679 12.197C8.3409 12.1009 8.31978 12.0529 8.37547 11.8455C8.41772 11.6919 8.45997 11.5383 8.50798 11.3865C8.54255 11.2752 8.5752 11.2252 8.63473 11.2252C8.6693 11.2252 8.71347 11.2425 8.773 11.2732C9.04955 11.4173 9.34337 11.4979 9.65256 11.5363C9.70441 11.5421 9.75627 11.5459 9.80812 11.5459C9.95215 11.5459 10.0923 11.519 10.2287 11.4595C10.5725 11.3097 10.6262 10.9122 10.3362 10.6741C10.2383 10.5934 10.125 10.5339 10.0078 10.482C9.70634 10.3495 9.3933 10.2496 9.10908 10.0787C8.64817 9.80217 8.35627 9.42385 8.39083 8.86308C8.42924 8.22934 8.78837 7.83372 9.37026 7.62248C9.61031 7.53606 9.61223 7.53798 9.61223 7.28832C9.61223 7.20382 9.61031 7.11932 9.61415 7.0329C9.61992 6.8447 9.65064 6.81205 9.83885 6.80629C9.85997 6.80629 9.88302 6.80629 9.90414 6.80629C9.94063 6.80629 9.97712 6.80629 10.0136 6.80629C10.029 6.80629 10.0443 6.80629 10.0578 6.80629C10.415 6.80629 10.415 6.82165 10.4169 7.20766C10.4188 7.49189 10.4188 7.49189 10.7011 7.53606C10.9181 7.57062 11.1236 7.634 11.3233 7.72234C11.4328 7.77035 11.4751 7.84717 11.4405 7.96431C11.3906 8.13715 11.3425 8.31191 11.2888 8.48283C11.2542 8.58654 11.2216 8.63455 11.1601 8.63455C11.1255 8.63455 11.0833 8.6211 11.0295 8.59422C10.753 8.45979 10.463 8.39449 10.1596 8.39449C10.1212 8.39449 10.0808 8.39641 10.0424 8.39833C9.95215 8.40409 9.86381 8.41562 9.77931 8.45211C9.47972 8.5827 9.43171 8.91301 9.68713 9.11658C9.8158 9.22028 9.96367 9.29326 10.1154 9.35663C10.3804 9.4661 10.6454 9.57172 10.897 9.70999C11.6882 10.1517 11.9033 11.1561 11.3406 11.8398Z" fill="white"/>
</g>
<defs>
<clipPath id="clip0_2_362">
<rect width="9.33333" height="9.33333" fill="white" transform="translate(5.3335 5.33331)"/>
</clipPath>
</defs>
</svg>
