<svg width="50" height="50" viewBox="0 0 50 50" fill="none" xmlns="http://www.w3.org/2000/svg">
<g clip-path="url(#clip0_2_670)">
<path d="M12.2266 11.9105C12.6854 5.25586 18.229 0 25.0002 0C31.7714 0 37.3149 5.25586 37.7738 11.9105C37.7941 12.2059 37.7738 24.5063 25.0002 24.5063C12.2265 24.5062 12.2061 12.2059 12.2266 11.9105Z" fill="#FFBA57"/>
<path d="M12.3722 33.7565L17.4208 39.1238C17.6641 39.3824 17.6959 39.7841 17.4731 40.0831C17.3298 40.2752 17.0964 40.3789 16.8567 40.3789H15.416L15.4161 49.255C15.4161 49.6664 15.0826 49.9999 14.6713 49.9999H8.96687C8.55554 49.9999 8.22205 49.6664 8.22205 49.255L8.22207 40.3789H6.75977C6.40479 40.3789 6.09043 40.1269 6.0253 39.7599C5.9834 39.5239 6.06778 39.2828 6.23203 39.1081L11.2766 33.7453C11.4836 33.5251 11.8107 33.4453 12.1104 33.5692C12.2104 33.6106 12.298 33.6776 12.3722 33.7565Z" fill="#FF5A3C"/>
<path d="M25.5427 28.6217L30.5876 33.985C30.7518 34.1596 30.8359 34.4007 30.794 34.6366C30.7286 35.0035 30.4144 35.2554 30.0595 35.2554H28.5972L28.5973 49.2555C28.5973 49.6668 28.2638 50.0003 27.8525 50.0003H22.1481C21.7368 50.0003 21.4033 49.6668 21.4033 49.2555L21.4032 35.2554H19.9409C19.5859 35.2554 19.2716 35.0033 19.2064 34.6363C19.1646 34.4003 19.2489 34.1592 19.4132 33.9846L24.4521 28.6276C24.5185 28.557 24.5961 28.4966 24.6843 28.4564C24.9902 28.3174 25.33 28.3955 25.5427 28.6217Z" fill="#FF5A3C"/>
<path d="M38.7235 23.8805L43.7683 29.2438C43.9325 29.4183 44.0168 29.6595 43.9746 29.8954C43.9092 30.2623 43.595 30.5142 43.2401 30.5142H41.7779L41.778 49.2553C41.778 49.6666 41.4445 50.0001 41.0332 50.0001H35.3288C34.9174 50.0001 34.584 49.6666 34.584 49.2553L34.5839 30.5142H33.1216C32.7668 30.5142 32.4525 30.2623 32.3872 29.8954C32.3452 29.6595 32.4294 29.4184 32.5936 29.2438L37.6385 23.8805C37.7793 23.7309 37.9756 23.646 38.181 23.646C38.3864 23.646 38.5828 23.7309 38.7235 23.8805Z" fill="#FF5A3C"/>
<path d="M15.9896 11.9107C16.4384 7.32988 20.3013 3.75049 25 3.75049C29.6879 3.75049 33.5437 7.31318 34.0073 11.8788C34.0381 12.1832 34.0075 20.9797 25 20.9797C15.9894 20.9796 15.9608 12.2048 15.9896 11.9107Z" fill="#FFE27A"/>
<path d="M24.7163 16.2968C23.5443 16.2254 23.2224 15.52 23.1626 15.3543C23.0772 15.0354 22.787 14.8002 22.4411 14.8002C22.0281 14.8002 21.6934 15.135 21.6934 15.5479C21.6934 15.6079 21.7012 15.666 21.7146 15.7219L21.7143 15.722C21.7149 15.7246 21.7164 15.7298 21.7183 15.7362C21.7274 15.7715 21.7383 15.8061 21.7522 15.8391C21.8902 16.2198 22.4434 17.4011 24.0731 17.7166V18.7096C24.0731 19.1217 24.4071 19.4558 24.8193 19.4558C25.2316 19.4558 25.5656 19.1217 25.5656 18.7096V17.7391C26.2799 17.6147 26.7598 17.3025 27.0598 17.0202C27.618 16.4949 27.9513 15.7009 27.9513 14.896C27.9513 14.1398 27.6547 12.3483 24.9076 12.0452C24.3635 11.9852 23.9752 11.812 23.7537 11.5305C23.5582 11.2819 23.537 11.0073 23.537 10.9008C23.537 10.7695 23.5731 9.61846 24.8193 9.61846C25.637 9.61846 25.9672 10.1385 26.0293 10.2516C26.14 10.5262 26.4084 10.7203 26.7227 10.7203C27.1357 10.7203 27.4704 10.3855 27.4704 9.97256C27.4704 9.8498 27.4402 9.73428 27.3878 9.63203L27.3882 9.63184C27.1778 9.17461 26.5839 8.45938 25.5656 8.21309V7.21162C25.5656 6.79951 25.2316 6.46533 24.8193 6.46533C24.4072 6.46533 24.0731 6.79941 24.0731 7.21162V8.21006C22.6001 8.55977 22.0445 9.93408 22.0445 10.9007C22.0445 11.9755 22.7515 13.3086 24.7439 13.5285C26.4587 13.7178 26.4587 14.6045 26.4587 14.8959C26.4587 15.2055 26.348 15.6405 26.0369 15.9331C25.743 16.2099 25.2989 16.3323 24.7163 16.2968Z" fill="#FF5A3C"/>
</g>
<defs>
<clipPath id="clip0_2_670">
<rect width="50" height="50" fill="white"/>
</clipPath>
</defs>
</svg>
