<svg width="228" height="122" viewBox="0 0 228 122" fill="none" xmlns="http://www.w3.org/2000/svg">
<path d="M124.789 116.023C126.025 115.733 127.135 115.944 128.283 116.367C137.861 119.908 147.745 121.61 157.98 121.463C170.103 121.289 182.037 120.162 193.595 116.122C199.661 114.004 205.623 111.689 211.337 108.757C211.987 108.424 212.687 107.705 213.415 108.23C214.348 108.9 213.6 109.819 213.413 110.602C212.936 112.601 212.264 114.56 211.905 116.581C211.635 118.103 212.656 119.752 213.76 120.027C215.27 120.407 215.865 119.246 216.534 118.266C216.841 117.821 217.142 117.364 217.405 116.893C220.377 111.603 223.32 106.297 226.319 101.018C227.439 99.0423 227.617 97.105 226.282 95.2202C224.975 93.3727 223.072 93.2458 221.018 93.6204C213.852 94.9165 206.679 96.1758 199.508 97.4685C198.548 97.6415 197.586 97.8742 196.678 98.2157C195.731 98.5729 194.916 99.1981 194.984 100.35C195.052 101.532 195.966 101.977 196.976 102.155C197.934 102.325 198.924 102.32 199.887 102.472C200.915 102.63 202.036 102.314 203.04 103.001C202.56 104.09 201.532 104.212 200.68 104.586C189.101 109.663 176.957 112.36 164.354 112.989C156.523 113.381 148.702 113.381 141.019 111.476C140.351 111.309 139.419 111.472 139.253 110.266C142.468 108.12 145.579 105.772 148.521 103.197C165.39 88.4236 163.442 63.7695 148.82 51.2608C145.758 48.6417 142.637 46.0754 139.06 44.2521C129.723 39.4997 119.875 38.4468 109.998 42.0691C91.2631 48.9481 87.3285 71.0005 91.9193 83.4673C95.3806 92.8776 101.735 100.196 109.647 106.242C110.91 107.208 112.42 107.872 113.58 109.238C112.781 109.898 112.22 109.877 111.688 109.901C103.696 110.249 95.8186 109.484 88.1587 107.169C70.9445 101.961 55.7066 93.1371 42.1989 81.4311C33.3034 73.7244 25.9938 64.5294 19.4802 54.7717C11.0101 42.0643 5.1901 28.2991 3.57998 12.9748C3.18976 9.27696 3.07723 5.60952 5.23619 2.29892C5.64936 1.66556 6.28124 0.971605 5.48661 0.314652C4.63222 -0.390801 3.85902 0.227019 3.19703 0.82479C2.45403 1.49221 2.00181 2.357 1.57871 3.24195C0.581701 5.33118 0.114022 7.54937 0.0380649 9.8409C-0.31161 20.404 1.74594 30.567 5.91194 40.2059C15.1938 61.6624 28.7876 79.979 47.3932 94.2971C60.6622 104.514 75.2473 112.359 91.8375 115.922C102.792 118.279 113.797 118.623 124.789 116.023ZM124.917 105.738C115.678 101.056 107.661 95.0415 101.883 86.2479C95.6535 76.7693 96.5411 62.8914 104.196 54.6102C108.484 49.9716 113.932 47.7319 120.135 47.5537C126.913 47.3606 133.267 48.9206 138.809 53.0783C143.177 56.3555 147.233 59.8919 149.74 64.8764C150.82 67.0272 151.48 69.2961 151.747 71.293C153.597 81.0869 151.177 89.2205 144.297 95.9987C140.162 100.072 135.528 103.405 130.206 105.779C128.411 106.581 126.746 106.661 124.917 105.738Z" fill="#FF5A3C"/>
</svg>
